<?xml version="1.0" encoding="UTF-8"?>
<svg id="Calque_2" data-name="Calque 2" xmlns="http://www.w3.org/2000/svg" viewBox="0 0 1021.78 694.35">
  <defs>
    <style>
      .cls-1 {
        fill: #e1dd00;
      }
    </style>
  </defs>
  <g id="Calque_1-2" data-name="Calque 1">
    <path class="cls-1" d="M1007.82,683.62c1.58,1.57,1.66,4.91,1.63,10.73h.43s0,0,0,0h0c.08-10.39,1.41-11.67,10.21-12.05.54-.01,1.1-.04,1.69-.06l-.02-.44c-.58.02-1.14.04-1.67.06-4.11.1-6.84-.25-8.4-1.83-.89-.9-1.42-2.21-1.68-4.24v-32.86c.46-6.94,2.49-7.96,10.08-8.29.54-.01,1.1-.04,1.69-.06l-.02-.44c-.58.02-1.14.04-1.67.06-4.1.1-6.84-.25-8.4-1.83-.89-.9-1.42-2.21-1.68-4.24v-33.2c.46-6.94,2.49-7.96,10.08-8.29.54-.01,1.1-.04,1.69-.06l-.02-.44c-.58.02-1.14.04-1.67.06-4.11.1-6.84-.25-8.4-1.83-.89-.9-1.42-2.21-1.68-4.24v-33.51c.46-6.94,2.49-7.96,10.08-8.29.54-.01,1.1-.04,1.69-.06l-.02-.44c-.58.02-1.14.04-1.67.06-4.11.1-6.84-.25-8.4-1.83-.89-.9-1.42-2.21-1.68-4.24V165.47c.46-6.94,2.49-7.96,10.08-8.29.54-.01,1.1-.04,1.69-.06l-.02-.44c-.58.02-1.14.04-1.67.06-4.1.1-6.84-.25-8.4-1.83-.89-.9-1.42-2.21-1.68-4.24v-33.85c.46-6.94,2.49-7.96,10.08-8.29.54-.01,1.1-.04,1.69-.06l-.02-.44c-.58.02-1.14.04-1.67.06-4.11.1-6.84-.25-8.4-1.83-.89-.9-1.42-2.21-1.68-4.24v-33.3c.46-6.94,2.49-7.96,10.08-8.29.54-.01,1.1-.04,1.69-.06l-.02-.44c-.58.02-1.14.04-1.67.06-4.1.1-6.84-.25-8.4-1.83-.89-.9-1.42-2.21-1.68-4.24V20.91c.46-6.94,2.49-7.96,10.08-8.29.54-.01,1.1-.04,1.69-.06l-.02-.44c-.58.02-1.14.04-1.67.06-4.1.1-6.84-.25-8.4-1.83-1.12-1.14-1.69-2.89-1.83-5.95.1-1.29.11-2.76.03-4.4h-.43c-.07,1.64-.09,3.12-.03,4.43-.24,2.9-.99,4.89-2.27,6.13-.64.62-1.4,1.04-2.28,1.33h-37.11c-1.36-.27-2.42-.75-3.18-1.53-1.12-1.14-1.69-2.89-1.83-5.96.11-1.29.11-2.75.03-4.4h-.43c-.07,1.64-.09,3.12-.03,4.43-.24,2.9-.99,4.89-2.27,6.13-.64.62-1.4,1.04-2.28,1.33h-38.45c-1.36-.27-2.42-.75-3.18-1.53-1.12-1.14-1.69-2.89-1.83-5.95.1-1.29.11-2.76.03-4.4h-.43c-.07,1.64-.09,3.12-.03,4.43-.24,2.9-.99,4.89-2.27,6.13-.64.62-1.4,1.04-2.28,1.33h-129.13c-1.36-.27-2.42-.75-3.18-1.53-1.12-1.14-1.69-2.89-1.83-5.95.1-1.29.11-2.76.03-4.4h-.43c-.07,1.64-.09,3.12-.03,4.43-.24,2.9-.99,4.89-2.27,6.13-.64.62-1.4,1.04-2.28,1.33h-37.13c-1.36-.27-2.42-.75-3.18-1.53-1.12-1.14-1.69-2.89-1.83-5.95.1-1.29.11-2.76.03-4.4h-.43c-.07,1.64-.09,3.12-.03,4.43-.24,2.9-.99,4.89-2.27,6.13-.64.62-1.4,1.04-2.28,1.33h-36.72c-1.36-.27-2.42-.75-3.18-1.53-1.12-1.14-1.69-2.89-1.83-5.96.11-1.29.11-2.76.03-4.4h-.43c-.07,1.64-.09,3.12-.03,4.43-.24,2.9-.99,4.89-2.27,6.13-.87.84-1.96,1.33-3.27,1.58-1.61-.13-3.67-.1-6.32-.02v.32H12.5v35.86h-.39c-.07,1.63-.09,3.11-.03,4.42-.25,2.89-1,4.87-2.31,6.11-.88.83-1.99,1.33-3.33,1.58-1.64-.13-3.73-.1-6.42-.02l-.02.43c2.48.27,4.64.35,6.44.03,1.84.16,3.17.55,4,1.36,1.61,1.56,1.67,4.91,1.66,10.69h.39v23.15h-.39c-.07,1.64-.09,3.11-.03,4.42-.25,2.89-1,4.87-2.31,6.11-.88.83-1.99,1.33-3.33,1.58-1.64-.13-3.73-.1-6.42-.02l-.02.43c2.48.27,4.64.35,6.44.03,1.84.16,3.17.55,4,1.36,1.61,1.56,1.67,4.91,1.66,10.69h.39v23.15h-.39c-.07,1.63-.09,3.11-.03,4.42-.25,2.89-1,4.87-2.31,6.11-.88.83-1.99,1.33-3.33,1.58-1.64-.13-3.73-.1-6.42-.02l-.02.43c2.48.27,4.64.35,6.44.03,1.84.16,3.17.55,4,1.36,1.61,1.56,1.67,4.91,1.66,10.69h.21v23.15h-.21c-.07,1.63-.09,3.11-.03,4.42-.25,2.89-1,4.87-2.31,6.11-.88.83-1.99,1.33-3.33,1.58-1.64-.13-3.73-.1-6.42-.02l-.02.43c2.48.27,4.64.35,6.44.03,1.84.16,3.17.55,4,1.36,1.61,1.56,1.67,4.91,1.66,10.69h.21v23.15h-.21c-.07,1.63-.09,3.11-.03,4.42-.25,2.89-1,4.87-2.31,6.11-.88.83-1.99,1.33-3.33,1.58-1.64-.14-3.73-.1-6.42-.02l-.02.43c2.48.27,4.64.35,6.44.03,1.84.16,3.17.55,4,1.36,1.61,1.56,1.67,4.91,1.66,10.69h.21v23.15h-.21c-.07,1.63-.09,3.11-.03,4.42-.25,2.89-1,4.87-2.31,6.11-.88.83-1.99,1.33-3.33,1.58-1.64-.13-3.73-.1-6.42-.02l-.02.43c2.48.27,4.64.35,6.44.03,1.84.16,3.17.55,4,1.36,1.61,1.56,1.67,4.91,1.66,10.69h.21v23.15h-.21c-.07,1.63-.09,3.11-.03,4.42-.25,2.89-1,4.87-2.31,6.11-.88.83-1.99,1.33-3.33,1.58-1.64-.13-3.73-.1-6.42-.02l-.02.43c2.48.27,4.64.35,6.44.03,1.84.16,3.17.55,4,1.36,1.61,1.56,1.67,4.91,1.66,10.69h.21v22.63h-.21c-.07,1.63-.09,3.11-.03,4.42-.25,2.89-1,4.87-2.31,6.11-.88.83-1.99,1.33-3.33,1.58-1.64-.14-3.73-.1-6.42-.02l-.02.43c2.48.27,4.64.35,6.44.03,1.84.16,3.17.55,4,1.36,1.61,1.56,1.67,4.91,1.66,10.69h.21v23.35h-.21c-.07,1.63-.09,3.11-.03,4.42-.25,2.89-1,4.87-2.31,6.11-.88.83-1.99,1.33-3.33,1.58-1.64-.14-3.73-.1-6.42-.02l-.02.43c2.48.27,4.64.35,6.44.03,1.84.16,3.17.55,4,1.36,1.61,1.56,1.67,4.91,1.66,10.69h.21v23.15h-.21c-.07,1.63-.09,3.11-.03,4.42-.25,2.89-1,4.87-2.31,6.11-.88.83-1.99,1.33-3.33,1.58-1.64-.14-3.73-.1-6.42-.02l-.02.43c2.48.27,4.64.35,6.44.03,1.84.16,3.17.55,4,1.36,1.61,1.56,1.68,4.91,1.66,10.69h.21v23.04h-.21c-.07,1.63-.09,3.11-.03,4.42-.25,2.89-1,4.87-2.31,6.11-.88.83-1.99,1.33-3.33,1.58-1.64-.14-3.73-.1-6.42-.02l-.02.43c2.48.27,4.64.35,6.44.03,1.84.16,3.17.55,4,1.36,1.61,1.56,1.67,4.9,1.66,10.69h.39v23.15h-.39c-.07,1.63-.09,3.11-.03,4.42-.25,2.89-1,4.87-2.31,6.11-.88.83-1.99,1.33-3.33,1.58-1.64-.13-3.73-.1-6.42-.02l-.02.43c2.48.27,4.64.35,6.44.03,1.84.16,3.17.55,4,1.36,1.61,1.56,1.68,4.9,1.66,10.69h.39v23.01h-.39c-.07,1.63-.09,3.11-.03,4.42-.25,2.89-1,4.87-2.31,6.11-.88.83-1.99,1.32-3.33,1.58-1.64-.14-3.73-.1-6.42-.02l-.02.43c2.48.27,4.64.35,6.44.03,1.84.16,3.17.55,4,1.36,1.61,1.56,1.68,4.9,1.66,10.69h.39v22.73h-.39c-.07,1.63-.09,3.11-.03,4.42-.25,2.89-1,4.87-2.31,6.11-.88.83-1.99,1.33-3.33,1.58-1.64-.14-3.73-.1-6.42-.02l-.02.43c2.48.27,4.64.35,6.44.03,1.84.16,3.17.55,4,1.36,1.61,1.56,1.67,4.91,1.66,10.69h.43s0,0,0,0h0c.06-7.93.88-10.53,5.28-11.49h39.03c.52.21.98.46,1.33.8,1.61,1.56,1.67,4.92,1.66,10.69h.43s0,0,0,0h0c.06-7.93.88-10.53,5.28-11.49h39.03c.52.21.98.46,1.33.8,1.61,1.56,1.67,4.91,1.66,10.69h.43c.06-7.93.88-10.53,5.28-11.49h39.03c.52.21.98.46,1.33.8,1.61,1.56,1.68,4.91,1.66,10.69h.43s0,0,0,0h0c.06-7.93.88-10.53,5.28-11.49h39.03c.52.21.98.46,1.33.8,1.61,1.56,1.67,4.91,1.66,10.69h.43s0,0,0,0h0c.06-7.93.88-10.53,5.28-11.49h39.03c.52.21.98.46,1.33.8,1.61,1.56,1.68,4.92,1.66,10.69h.43s0,0,0,0h0c.06-7.93.88-10.53,5.28-11.49h39.03c.52.21.98.46,1.33.8,1.61,1.56,1.67,4.92,1.66,10.69h0s.43,0,.43,0h0c.06-7.94.88-10.54,5.28-11.49h39.03c.52.21.98.46,1.33.8,1.61,1.56,1.67,4.91,1.66,10.69h.43s0,0,0,0h0c.06-7.93.88-10.53,5.28-11.49h39.03c.52.21.98.46,1.33.8,1.61,1.56,1.68,4.91,1.66,10.69h.43s0,0,0,0h0c.06-7.93.88-10.53,5.28-11.49h39.03c.52.21.98.46,1.33.8,1.61,1.56,1.67,4.91,1.66,10.69h.43s0,0,0,0h0c.06-7.93.88-10.53,5.28-11.49h39.03c.52.21.98.46,1.33.8,1.61,1.56,1.67,4.92,1.66,10.69h.43s0,0,0,0h0c.06-7.93.88-10.53,5.28-11.49h39.03c.52.21.98.46,1.33.8,1.61,1.56,1.67,4.91,1.66,10.69h.43s0,0,0,0h0c.06-7.93.88-10.53,5.28-11.49h39.03c.52.21.98.46,1.33.8,1.61,1.56,1.67,4.91,1.66,10.69h.43s0,0,0,0h0c.06-7.93.88-10.53,5.28-11.49h39.03c.52.21.98.46,1.33.8,1.61,1.56,1.68,4.91,1.66,10.69h.43s0,0,0,0h0c.06-7.93.88-10.53,5.28-11.49h38.47c-.44.18-.91.32-1.42.42-1.61-.14-3.67-.1-6.32-.02l-.02.43c2.44.27,4.57.35,6.34.03,1.81.16,3.12.55,3.93,1.36,1.58,1.57,1.65,4.91,1.63,10.73h.21s.21,0,.21,0h0c.06-7.96.87-10.57,5.2-11.53h38.12c.52.21.96.46,1.31.8,1.58,1.57,1.65,4.91,1.63,10.73h.21s.21,0,.21,0c.06-7.96.87-10.57,5.2-11.53h38.4c.52.21.96.46,1.31.8,1.58,1.57,1.64,4.91,1.63,10.73h.21s.21,0,.21,0h0c.05-6.89.67-9.76,3.63-11.04h40.86c.14.1.29.19.41.31,1.58,1.57,1.66,4.91,1.63,10.73h.21s.21,0,.21,0h0c.05-6.89.67-9.76,3.63-11.04h40.86c.14.1.29.19.41.31,1.58,1.57,1.65,4.91,1.63,10.73h.21s.21,0,.21,0h0c.05-6.89.67-9.76,3.63-11.04h40.86c.14.1.29.19.41.31,1.58,1.57,1.64,4.92,1.63,10.72h0s.21,0,.21,0h.21s0,0,0,0h0c.06-7.96.87-10.57,5.2-11.53h38.4c.52.21.96.46,1.31.8,1.58,1.57,1.65,4.91,1.63,10.73h.21s.21,0,.21,0h0c.06-7.96.87-10.57,5.2-11.53h37.84c.81.22,1.47.54,1.95,1.01ZM1005.59,12.86c.95.22,1.71.56,2.24,1.09.6.6.98,1.45,1.23,2.6v38.13c-.38,1.62-1.01,2.85-1.9,3.7-.64.62-1.42,1.06-2.32,1.34h-37.12c-1.31-.28-2.33-.75-3.08-1.51-.75-.76-1.25-1.81-1.54-3.33V18.94c.61-4.23,2.3-5.57,6.63-6.08h35.85ZM958.48,12.86c.95.22,1.71.56,2.24,1.09.73.73,1.14,1.84,1.37,3.41v37.04c-.38,1.79-1.03,3.11-1.97,4.03-.62.6-1.37,1.02-2.22,1.3h-18.54l-22.76-45.23c1.04-.92,2.54-1.38,4.7-1.63h37.19ZM770.9,12.86c.86.2,1.56.51,2.07.96l-22.21,45.9h-17.85c-1.31-.28-2.33-.75-3.08-1.51-.55-.56-.97-1.29-1.26-2.25V17.96c.73-3.46,2.48-4.63,6.46-5.09h35.88ZM723.77,12.86c.95.22,1.71.56,2.24,1.09.99.98,1.38,2.65,1.54,5.18v30.4c-.01.7-.02,1.37,0,2.01v.98c-.26,2.77-1,4.7-2.25,5.91-.62.6-1.36,1.02-2.22,1.3h-36.66c-1.4-.27-2.48-.76-3.27-1.55-.76-.77-1.26-1.85-1.56-3.42V19.49c.55-4.68,2.19-6.11,6.71-6.63h35.47ZM17.5,60.14c-1.33-.28-2.37-.75-3.13-1.5-.36-.36-.65-.78-.9-1.28V13.42h46.7v34.89h-.34c-.07,1.63-.09,3.11-.03,4.42-.25,2.89-1,4.87-2.31,6.11-.63.6-1.39,1.01-2.25,1.3H17.5ZM65.23,60.14c-1.33-.28-2.37-.75-3.13-1.5-.35-.35-.64-.77-.89-1.26V13.42h46.64v.44l-23.37,46.28h-19.24ZM609.03,60.14l-23.41-46.41v-.31h46.64v41.41c-.38,1.78-1.04,3.1-2.01,4.02-.63.6-1.39,1.01-2.25,1.3h-18.97ZM637.99,60.14c-1.33-.28-2.37-.75-3.13-1.5-.76-.76-1.27-1.8-1.56-3.32V13.42h45.29c.26.15.5.33.7.53.28.28.52.62.71,1.02v41.31c-.36.85-.81,1.55-1.38,2.1-.86.84-1.96,1.33-3.27,1.58-1.61-.13-3.67-.1-6.32-.02v.2h-31.04ZM1005.82,60.75c.83.23,1.51.55,2,1.03.6.6.98,1.45,1.23,2.6v38.41c-.38,1.62-1.01,2.85-1.9,3.7-.48.46-1.03.81-1.65,1.08h-38c-1.2-.28-2.16-.74-2.86-1.45-.75-.76-1.25-1.81-1.54-3.33v-35.54c.55-4.53,2.17-5.96,6.53-6.49h36.19ZM958.62,60.75c.91.23,1.64.55,2.15,1.07.67.67,1.07,1.66,1.31,3.03v37.44c-.13.61-.29,1.16-.48,1.66l-21.74-43.2h18.76ZM750.27,60.75l-21.33,44.07c-.14-.29-.26-.61-.37-.95v-38.18c.74-3.3,2.45-4.47,6.26-4.94h15.44ZM687.81,60.75h36.01c.91.23,1.64.55,2.15,1.07,1.1,1.08,1.46,3.03,1.58,6.04v29.57c-.01.7-.02,1.37,0,2.01v.98c-.26,2.77-1,4.7-2.25,5.91-.59.57-1.29.96-2.08,1.25h-36.37c-1.61-.25-2.84-.74-3.7-1.62-.76-.77-1.26-1.85-1.56-3.42v-35.22c.52-4.5,2.07-5.99,6.21-6.57ZM609.54,61.16h19.2c.92.22,1.66.55,2.19,1.06.69.67,1.09,1.66,1.33,3.03v37.33c-.18.83-.42,1.56-.72,2.2l-22-43.61ZM61.5,105.63c-.1-.16-.2-.33-.29-.51v-40.41c.91-2.28,2.67-3.16,5.96-3.56h16.79l-22.46,44.47ZM17.28,107.84c-1.22-.28-2.19-.74-2.91-1.45-.36-.36-.65-.78-.9-1.28v-40.35c.91-2.3,2.67-3.19,5.97-3.59h36.55c.92.22,1.66.55,2.19,1.06,1.61,1.56,1.67,4.91,1.66,10.69h.34v23.15h-.34c-.07,1.63-.09,3.11-.03,4.42-.25,2.89-1,4.87-2.31,6.11-.59.56-1.31.96-2.11,1.24H17.28ZM637.77,107.84c-1.22-.28-2.2-.74-2.91-1.45-.76-.76-1.27-1.8-1.56-3.32v-35.42c.56-4.52,2.21-5.94,6.63-6.48h38.49c.33.17.63.37.87.61.28.28.52.62.71,1.02v41.27c-.36.85-.81,1.55-1.38,2.1-.87.84-1.96,1.33-3.27,1.58-1.61-.13-3.67-.1-6.32-.02v.12h-31.26ZM958.16,155.4h-16.79l20.7-41.98v36.75c-.38,1.79-1.03,3.11-1.97,4.03-.55.53-1.21.91-1.94,1.19ZM998.66,108.58c1.71.15,3.25.17,4.61,0h1.2c1.51.19,2.63.57,3.36,1.29.61.6.99,1.47,1.23,2.63v38.92c-.2.84-.46,1.57-.79,2.19l-42.55-43.83c1.04-.65,2.44-1,4.33-1.2h28.62ZM958.41,108.58c.05.01.1.03.15.04h-35.75c.1-.01.18-.03.28-.04h35.33ZM911.45,108.58c1.01.22,1.81.57,2.37,1.12.73.73,1.14,1.84,1.36,3.4v36.79c-.36,1.93-1.03,3.35-2.03,4.32-.55.53-1.21.91-1.94,1.19h-37.84c-1.1-.29-1.99-.73-2.65-1.4-.66-.67-1.13-1.57-1.43-2.82v-36.85c.67-4.04,2.43-5.28,6.83-5.75h35.33ZM864.24,155.4h-16c9.94-1.15,17.97-8.7,20.02-18.51v12.68c-.35,2.1-1.03,3.63-2.08,4.64-.55.53-1.2.91-1.94,1.19ZM864.49,108.58c1.01.22,1.81.57,2.37,1.12.79.78,1.2,2.01,1.42,3.76v13.53c-2-9.54-9.65-16.95-19.2-18.41h15.42ZM842.16,108.58c-11.16,1.7-19.72,11.51-19.72,23.36s8.98,22.13,20.53,23.46h-16.58c-1.1-.29-1.99-.73-2.65-1.4-.62-.63-1.07-1.47-1.37-2.61v-37.36c.71-3.8,2.49-4.99,6.78-5.45h13ZM817.52,108.58c1.01.22,1.81.57,2.37,1.12.86.85,1.28,2.24,1.47,4.27v35.27c-.33,2.27-1.03,3.9-2.14,4.97-.55.53-1.21.91-1.94,1.19h-37.84c-1.1-.29-1.98-.73-2.65-1.4-.59-.6-1.02-1.37-1.32-2.4v-28.91l.04-9.1c.76-3.43,2.57-4.56,6.68-5h35.33ZM640.35,108.85h37.89c.4.19.76.4,1.05.68.28.28.52.62.71,1.02v40.26c-.36.85-.81,1.55-1.38,2.1-.3.29-.63.52-.99.73l-42.01-43.39c1.08-.79,2.6-1.19,4.73-1.41ZM487.74,109.97c.25.24.46.53.63.86l-43.54,43.98c-.33-.2-.64-.41-.9-.68-.6-.59-1.03-1.36-1.34-2.39v-37.71c.75-3.58,2.57-4.73,6.81-5.18h35.93c1.02.22,1.83.57,2.4,1.11ZM246.7,108.86c1.02.22,1.83.57,2.4,1.11,1.61,1.56,1.67,4.91,1.66,10.69h.11v23.15h-.11c-.07,1.63-.09,3.11-.03,4.42-.24,2.87-1,4.85-2.29,6.09l-43.23-43.24c1.08-1.34,2.81-1.93,5.56-2.22h35.93ZM728.57,151.75v-38.21c.2-.9.47-1.66.85-2.27l21.02,44.13h-17.96c-1.1-.29-1.98-.73-2.65-1.4-.55-.56-.97-1.29-1.26-2.25ZM770.56,108.58c.05.01.1.03.15.04h-35.75c.1-.01.18-.03.28-.04h35.33ZM687.33,108.58h36.28c.85.19,1.53.48,2.06.89l-42.6,43.14c-.71-.77-1.19-1.81-1.47-3.31v-34.21c.5-4.33,1.94-5.88,5.73-6.5ZM13.47,152.85v-40.35c.95-2.4,2.81-3.27,6.39-3.64h35.9c1,.22,1.79.55,2.35,1.07l-43.86,44.08c-.31-.33-.57-.71-.79-1.15ZM64.79,155.53c-1.12-.29-2.02-.73-2.69-1.4-.35-.35-.64-.77-.89-1.26v-40.41c.52-1.29,1.32-2.13,2.5-2.69l42.4,43.47c-.26.41-.56.78-.89,1.1-.56.53-1.22.91-1.97,1.19h-38.46ZM255.71,155.53c-1.12-.29-2.02-.73-2.69-1.4-.46-.46-.83-1.04-1.12-1.75v-39.25c.87-2.88,2.72-3.87,6.59-4.28h35.93c1.02.22,1.83.57,2.4,1.11,1.61,1.56,1.68,4.9,1.66,10.69h0s.06,0,.06,0v23.15h-.06c-.07,1.63-.09,3.11-.03,4.42-.25,2.89-1,4.87-2.31,6.11-.56.53-1.22.91-1.97,1.19h-38.46ZM303.44,155.53c-1.12-.29-2.02-.73-2.69-1.4-.5-.49-.88-1.12-1.17-1.9v-32.41c4.3,18.3,19.23,32.48,37.91,35.71h-34.05ZM356.3,155.53c18.26-3.15,32.92-16.78,37.59-34.47v24.51c-.01.66-.01,1.29,0,1.89v1c-.27,2.76-1.01,4.68-2.29,5.89-.56.53-1.23.91-1.97,1.19h-33.34ZM398.9,155.53c-1.12-.29-2.02-.73-2.69-1.4-.56-.56-.98-1.27-1.28-2.2v-35.89c.18-1.19.32-2.39.4-3.61.95-2.35,2.81-3.2,6.35-3.57h35.93c1.02.22,1.83.57,2.4,1.11.98.95,1.39,2.58,1.55,5.01v33.97c-.31,2.5-1.04,4.26-2.23,5.39-.56.53-1.22.91-1.97,1.19h-38.46ZM589.82,155.53c-1.12-.29-2.02-.73-2.69-1.4-.05-.05-.1-.12-.15-.17l44.03-43.91c.64.66,1.03,1.63,1.26,2.95v37.33c-.38,1.78-1.04,3.1-2.01,4.02-.56.53-1.22.91-1.97,1.19h-38.46ZM64.57,203.22c-1.02-.29-1.84-.72-2.47-1.34-.35-.35-.64-.77-.89-1.26v-40.41c1-2.51,3.04-3.33,7.02-3.67h30.26c.43.01.85.01,1.25,0h3.54c1.14.22,2.02.58,2.62,1.17,1.61,1.56,1.67,4.91,1.66,10.69h.28v23.15h-.28c-.07,1.63-.09,3.11-.03,4.42-.25,2.89-1,4.87-2.31,6.11-.52.5-1.14.86-1.83,1.14h-38.82ZM390.95,156.92h-39.02c.77-.17,1.67-.29,2.68-.37h30.26c.43.01.85.01,1.25,0h3.54c.48.09.91.22,1.29.37ZM402.33,156.55h30.26c.43.01.85.01,1.25,0h3.54c.48.09.91.22,1.29.37h-39.02c.77-.17,1.67-.29,2.68-.37ZM343.22,156.92h-39.02c.77-.17,1.67-.29,2.68-.37h30.26c.43.01.85.01,1.25,0h3.54c.48.09.91.22,1.29.37ZM295.49,156.92h-39.02c.77-.17,1.67-.29,2.68-.37h30.26c.43.01.85.01,1.25,0h3.54c.48.09.91.22,1.29.37ZM112.3,203.22c-1.02-.29-1.84-.72-2.47-1.34-.38-.38-.69-.83-.95-1.37v-40.13c.4-1.09.99-1.87,1.82-2.44l42.65,43.72c-.13.15-.25.29-.39.42-.52.5-1.14.86-1.83,1.14h-38.82ZM541.87,203.22c-1.02-.29-1.84-.72-2.47-1.34-.08-.08-.15-.17-.22-.25l44.02-43.91c.74.72,1.15,1.83,1.38,3.38v36.69c-.37,1.93-1.05,3.34-2.06,4.3-.52.5-1.14.86-1.83,1.14h-38.82ZM589.6,203.22c-1.02-.29-1.84-.72-2.47-1.34-.71-.71-1.2-1.66-1.51-3.02v-36.13c.66-4.52,2.56-5.75,7.63-6.19h30.26c.43.01.85.01,1.25,0h3.54c1.14.22,2.02.58,2.63,1.17.69.67,1.09,1.66,1.33,3.03v37.33c-.38,1.78-1.04,3.1-2.01,4.02-.52.5-1.14.86-1.83,1.14h-38.82ZM732.26,203.23c-1-.29-1.81-.72-2.43-1.35-.55-.56-.97-1.29-1.26-2.25v-38.21c.81-3.56,2.76-4.62,7.28-5.01h15.07l21.61,45.38c-.09.1-.18.21-.27.3-.52.5-1.12.86-1.8,1.14h-38.2ZM920.11,203.23c-.73-.21-1.36-.5-1.89-.89l22.65-45.93h12.61c.42.01.82,0,1.21,0h3.5c1.12.22,1.99.58,2.58,1.17.67.67,1.07,1.66,1.31,3.03v37.44c-.38,1.79-1.03,3.11-1.97,4.03-.52.5-1.12.86-1.8,1.14h-38.2ZM144.98,204.24c1.28.09,2.45.1,3.53,0h2.16c1.31.21,2.3.58,2.96,1.22,1.61,1.56,1.67,4.91,1.66,10.69h.23v23.15h-.23c-.07,1.63-.09,3.11-.03,4.42-.21,2.46-.79,4.25-1.77,5.5l-42.56-43.69c1.28-.78,3.09-1.12,5.67-1.3h28.38ZM63.42,205.4c1.26-.68,3.03-.99,5.46-1.16h28.38c1.28.09,2.45.1,3.53,0h2.16c1.3.21,2.3.58,2.96,1.22,1.61,1.56,1.67,4.91,1.66,10.69h.28v23.15h-.28c-.07,1.63-.09,3.11-.03,4.42-.22,2.59-.86,4.45-1.93,5.7l-42.18-44.03ZM159.83,250.92c-.92-.29-1.68-.7-2.26-1.29-.41-.4-.74-.89-1.01-1.48v-39.85c.3-.86.7-1.54,1.23-2.07l42.7,43.77c-.44.38-.94.69-1.49.92h-39.17ZM493.94,250.92c-.92-.29-1.68-.7-2.27-1.29-.1-.1-.19-.21-.29-.32l44.01-43.9s.05.04.08.06c.81.78,1.22,2.02,1.44,3.78v35.96c-.36,2.09-1.05,3.62-2.12,4.63-.49.46-1.06.81-1.69,1.08h-39.17ZM541.67,250.92c-.92-.29-1.68-.7-2.27-1.29-.67-.67-1.15-1.57-1.45-2.81v-36.74c.74-4.39,2.81-5.46,8.23-5.84h28.38c1.28.09,2.45.1,3.53,0h2.16c1.3.21,2.3.58,2.96,1.22.74.72,1.15,1.83,1.38,3.38v36.69c-.37,1.93-1.05,3.34-2.06,4.3-.49.46-1.06.81-1.69,1.08h-39.17ZM589.4,250.92c-.92-.29-1.68-.7-2.27-1.29-.71-.71-1.2-1.66-1.51-3.02v-36.13c.68-4.72,2.71-5.85,8.29-6.24h28.38c1.28.09,2.45.1,3.53,0h2.16c1.31.21,2.3.58,2.96,1.22.69.67,1.09,1.66,1.33,3.02v37.33c-.38,1.78-1.04,3.1-2.01,4.02-.49.46-1.06.81-1.69,1.08h-39.17ZM734.03,251.07c-.76-.05-1.53-.1-2.3-.13-.75-.28-1.39-.65-1.89-1.16-.55-.56-.97-1.29-1.26-2.25v-38.21c.85-3.73,2.94-4.71,7.93-5.07h27.92c1.26.09,2.41.1,3.47,0h2.13c1.28.21,2.26.58,2.91,1.23.97.96,1.36,2.58,1.53,5.02v34.07c-.3,2.5-1.02,4.27-2.19,5.41-.48.47-1.04.81-1.66,1.09h-36.57ZM779.03,251.07c-.91-.29-1.65-.7-2.23-1.29-.59-.6-1.02-1.37-1.32-2.4v-37.82c.68-3.28,2.24-4.53,5.7-5.06h36.87c.76.22,1.38.53,1.84.99.86.86,1.28,2.24,1.47,4.27v35.26c-.33,2.27-1.03,3.9-2.14,4.97-.48.47-1.04.81-1.66,1.09h-38.53ZM825.99,251.07c-.91-.29-1.65-.7-2.23-1.29-.62-.63-1.07-1.47-1.37-2.61v-37.35c.65-3.48,2.2-4.77,5.76-5.32h36.87c.76.22,1.38.53,1.84.99.79.78,1.2,2.01,1.42,3.76v36.11c-.35,2.1-1.03,3.63-2.08,4.64-.48.47-1.04.82-1.66,1.09h-38.53ZM872.95,251.07c-.91-.29-1.65-.7-2.23-1.29-.66-.67-1.13-1.57-1.43-2.82v-36.85c.61-3.71,2.16-5.05,5.81-5.61h36.87c.76.22,1.38.53,1.84.99.73.73,1.14,1.84,1.36,3.39v36.79c-.36,1.93-1.03,3.35-2.03,4.32-.48.47-1.04.82-1.66,1.09h-38.53ZM919.91,251.07c-.91-.29-1.65-.7-2.23-1.29-.7-.71-1.18-1.66-1.48-3.03v-36.23c.67-4.73,2.66-5.87,8.15-6.26h27.92c1.26.09,2.41.1,3.47,0h2.13c1.28.21,2.26.58,2.91,1.23.67.67,1.07,1.66,1.31,3.03v37.45c-.38,1.79-1.03,3.11-1.97,4.03-.06.05-.12.09-.18.15-3.73.09-7.41.41-11.03.94h-28.99ZM943.14,252.09c-9.6,2.03-18.66,5.55-26.95,10.31v-4c.71-4.98,2.89-5.98,9.06-6.31h17.89ZM763.83,252.09c1.67.14,3.17.17,4.5,0h1.28c1.48.19,2.6.57,3.32,1.28.97.96,1.36,2.58,1.53,5.02v5.16c-9.76-5.74-20.46-9.62-31.66-11.46h21.04ZM475.33,251.94c-11.75,1.84-22.8,5.82-32.73,11.53v-6.19c.87-4.14,3.19-5.03,9.04-5.34h23.69ZM239.85,251.94c1.7.14,3.22.17,4.57,0h1.3c1.51.19,2.64.57,3.37,1.28,1.61,1.56,1.67,4.91,1.66,10.69h.11v.45c-12.07-6.94-25.55-11.15-39.65-12.3.55-.05,1.14-.09,1.77-.12h26.86ZM157.96,253.81c1.41-1.26,3.68-1.68,7.3-1.87h26.86c1.7.14,3.22.17,4.57,0h1.3c1.51.19,2.64.57,3.37,1.28,1.61,1.56,1.67,4.91,1.66,10.69h.17v23.15h-.17c-.07,1.63-.09,3.11-.03,4.42-.25,2.89-1,4.87-2.31,6.11-.01.01-.03.02-.04.03l-42.68-43.81ZM285.61,298.61c-3.98-6.69-8.8-12.93-14.42-18.59-5.84-5.89-12.33-10.92-19.29-15.04v-8.6c1.02-3.38,3.41-4.16,8.82-4.44h26.86c1.7.14,3.22.17,4.57,0h1.3c1.51.19,2.64.57,3.37,1.28,1.61,1.56,1.68,4.9,1.66,10.69h0s.06,0,.06,0v23.15h-.06c-.07,1.63-.09,3.11-.03,4.42-.25,2.89-1,4.87-2.31,6.11-.45.43-.97.77-1.55,1.03h-8.99ZM302.87,298.61c-.86-.28-1.57-.68-2.12-1.23-.5-.49-.88-1.12-1.17-1.9v-38.93c.99-3.53,3.38-4.32,8.87-4.61h26.86c1.7.14,3.23.17,4.57,0h1.3c1.51.19,2.64.57,3.37,1.28,1.61,1.56,1.67,4.91,1.66,10.69h0v23.15h0c-.07,1.63-.09,3.11-.03,4.42-.25,2.89-1,4.87-2.31,6.11-.45.43-.97.77-1.55,1.03h-39.45ZM350.6,298.61c-.86-.28-1.57-.68-2.12-1.23-.53-.53-.93-1.19-1.23-2.05v-38.56c.95-3.71,3.32-4.53,8.93-4.83h26.86c1.7.14,3.22.17,4.57,0h1.3c1.51.19,2.64.57,3.37,1.28,1.12,1.09,1.49,3.04,1.61,6.06v29.53c-.01.66-.01,1.29,0,1.89v1c-.27,2.77-1.01,4.68-2.29,5.89-.45.43-.97.77-1.55,1.03h-39.45ZM398.33,298.61c-.86-.28-1.57-.68-2.12-1.23-.56-.56-.98-1.27-1.28-2.2v-38.15c.91-3.92,3.26-4.78,8.98-5.09h26.86c1.7.14,3.22.17,4.57,0h1.3c1.51.19,2.64.57,3.37,1.28.98.95,1.39,2.58,1.55,5.01v5.86c-14.15,8.38-25.96,20.3-34.21,34.53h-9.02ZM493.79,298.61c-.86-.28-1.57-.68-2.12-1.23-.32-.32-.59-.69-.83-1.13v-40.7c1.16-2.69,3.59-3.36,8.52-3.62h26.86c1.7.14,3.23.17,4.57,0h1.3c1.51.19,2.64.57,3.37,1.28.81.78,1.22,2.02,1.44,3.79v35.96c-.36,2.09-1.05,3.62-2.12,4.63-.45.43-.97.77-1.55,1.03h-39.45ZM541.52,298.61c-.86-.28-1.57-.68-2.12-1.23-.67-.67-1.15-1.57-1.45-2.81v-36.74c.78-4.63,3.05-5.57,9.15-5.89h26.86c1.7.14,3.22.17,4.57,0h1.3c1.51.19,2.64.57,3.37,1.28.74.72,1.15,1.83,1.38,3.38v36.69c-.37,1.93-1.05,3.34-2.06,4.3-.45.43-.97.77-1.55,1.03h-39.45ZM589.25,298.61c-.86-.28-1.57-.68-2.12-1.23-.71-.71-1.2-1.66-1.51-3.02v-36.13c.72-4.96,2.94-5.96,9.21-6.29h26.86c1.7.14,3.22.17,4.57,0h1.3c1.51.19,2.64.57,3.37,1.28.69.67,1.09,1.66,1.33,3.03v37.33c-.38,1.78-1.04,3.1-2.01,4.02-.45.43-.97.77-1.55,1.03h-39.45ZM809.15,298.9c-4.02-7.1-8.97-13.72-14.78-19.7-5.73-5.88-12.08-10.91-18.89-15.04v-6.72c.86-4.15,3.14-5.04,8.89-5.36h26.42c1.67.14,3.17.17,4.5,0h1.28c1.48.19,2.6.57,3.32,1.28.86.86,1.28,2.24,1.47,4.27v35.27c-.33,2.27-1.03,3.9-2.14,4.97-.45.43-.96.77-1.52,1.03h-8.55ZM825.85,298.9c-.84-.29-1.54-.68-2.09-1.24-.62-.63-1.07-1.47-1.37-2.61v-37.36c.81-4.38,3.08-5.29,8.95-5.61h26.42c1.67.14,3.17.17,4.5,0h1.28c1.48.19,2.6.57,3.32,1.28.79.78,1.2,2,1.42,3.75v36.11c-.35,2.1-1.03,3.63-2.08,4.64-.45.43-.96.77-1.52,1.03h-38.82ZM872.81,298.9c-.84-.29-1.54-.68-2.09-1.24-.66-.67-1.13-1.57-1.43-2.82v-36.85c.77-4.64,3-5.58,9-5.91h26.42c1.67.14,3.17.17,4.5,0h1.28c1.48.19,2.6.57,3.32,1.28.73.73,1.14,1.84,1.36,3.39v6.23c-14.52,8.59-26.58,21.02-34.86,35.91h-7.51ZM879.75,299.92c-5.15,9.54-8.75,20.06-10.47,31.21v-25.25c.8-4.85,3.18-5.66,9.83-5.95.08,0,.17,0,.26,0h.38ZM857.16,299.92c2.1.21,3.95.26,5.53,0h.43c1.7.17,2.94.56,3.73,1.34.79.78,1.2,2.01,1.42,3.76v36.1c-.35,2.1-1.03,3.63-2.08,4.64-.02.02-.04.03-.05.04h-42.08c-.1-.08-.21-.16-.3-.25-.62-.63-1.07-1.47-1.37-2.61v-37.35c.85-4.59,3.27-5.37,9.77-5.66.08,0,.17,0,.26,0h24.74ZM810.2,299.92c2.1.21,3.95.26,5.53,0h.43c1.7.17,2.94.56,3.73,1.34.86.86,1.28,2.25,1.47,4.27v33.5c-1.08-13.87-5.05-27.16-11.63-39.11h.47ZM406.78,299.63c-6.44,11.43-10.6,24.32-11.85,38.03v-32.89c.96-4.12,3.47-4.86,9.82-5.13.08,0,.18,0,.26,0h1.77ZM286.2,299.63h.78c2.13.21,4.01.26,5.62,0h.44c1.73.17,2.99.56,3.79,1.33,1.61,1.56,1.68,4.9,1.66,10.69h0s.06,0,.06,0v23.15h-.06c-.04.92-.06,1.79-.06,2.6-1.38-13.42-5.55-26.24-12.22-37.78ZM302.47,346.21c-.67-.27-1.25-.62-1.72-1.08-.5-.49-.88-1.12-1.17-1.9v-38.93c1.04-3.71,3.6-4.39,9.71-4.66.08,0,.18,0,.26,0h25.16c2.13.21,4.01.26,5.62,0h.44c1.73.17,2.99.56,3.79,1.33,1.61,1.56,1.67,4.91,1.66,10.69h0v23.15h0c-.07,1.63-.09,3.11-.03,4.42-.25,2.89-1,4.87-2.31,6.11-.37.36-.8.64-1.26.88h-40.14ZM350.2,346.21c-.67-.27-1.25-.62-1.72-1.08-.53-.53-.93-1.19-1.23-2.05v-38.56c1-3.9,3.54-4.61,9.77-4.88.08,0,.18,0,.26,0h25.16c2.13.21,4.01.26,5.62,0h.44c1.73.17,2.99.56,3.79,1.33,1.12,1.09,1.49,3.03,1.61,6.06v29.53c-.01.66-.01,1.29,0,1.89v1c-.27,2.77-1.01,4.68-2.29,5.89-.37.35-.8.64-1.26.87h-40.14ZM493.65,346.31c-.79-.28-1.46-.66-1.98-1.18-.32-.32-.59-.69-.83-1.13v-40.7c1.22-2.84,3.84-3.43,9.36-3.67.08,0,.18,0,.26,0h25.16c2.13.21,4.01.26,5.62,0h.44c1.73.17,2.99.56,3.79,1.33.81.78,1.22,2.02,1.44,3.78v35.96c-.36,2.1-1.05,3.62-2.12,4.63-.42.4-.9.72-1.43.97h-39.71ZM541.38,346.31c-.79-.28-1.46-.66-1.98-1.18-.67-.67-1.15-1.57-1.45-2.81v-36.74c.82-4.84,3.23-5.65,9.99-5.94.08,0,.18,0,.26,0h25.16c2.13.21,4.01.26,5.62,0h.44c1.73.17,2.99.56,3.79,1.33.74.72,1.15,1.83,1.38,3.38v36.69c-.37,1.93-1.05,3.34-2.06,4.3-.42.4-.9.72-1.43.97h-39.71ZM589.11,346.31c-.79-.28-1.46-.66-1.98-1.18-.71-.71-1.2-1.66-1.51-3.02v-36.13c.75-5.19,3.11-6.04,10.05-6.34.08,0,.18,0,.26,0h25.16c2.13.21,4.01.26,5.62,0h.44c1.73.17,2.99.56,3.79,1.33.69.67,1.09,1.66,1.33,3.03v37.33c-.38,1.78-1.04,3.1-2.01,4.02-.42.4-.9.72-1.43.97h-39.71ZM209.21,394c-1.71-.25-3.02-.74-3.92-1.64-.36-.36-.66-.79-.91-1.3v-6.63c4.31-20.13,21.45-35.08,41.7-36.96,1.33.21,2.34.58,3.01,1.23,1.61,1.56,1.67,4.91,1.66,10.69h.11v22.63h-.11c-.07,1.63-.09,3.11-.03,4.42-.25,2.89-1,4.87-2.31,6.11-.74.7-1.66,1.15-2.73,1.43h-36.47ZM256.94,394c-1.71-.25-3.02-.74-3.92-1.64-.46-.46-.83-1.04-1.12-1.75v-38.73c.76-2.54,2.3-3.61,5.3-4.11,15.84,2.29,29.48,12.46,36.14,27.32.18.52.39,1.02.64,1.5l.22.54.02-.06c2.25,4.36,3.27,8.88,3.74,12.25-.4,1.4-1,2.48-1.82,3.25-.74.7-1.66,1.15-2.73,1.43h-36.47ZM495.59,394c-1.71-.25-3.02-.74-3.92-1.64-.09-.09-.17-.19-.25-.28v-42.05c1.41-1.97,4-2.44,8.79-2.65.55-.01,1.12-.03,1.72-.06h0s23.11,0,23.11,0h0c2.48.27,4.64.35,6.44.03,1.84.16,3.17.55,4,1.36.81.78,1.22,2.02,1.44,3.79v35.44c-.36,2.1-1.05,3.62-2.12,4.63-.74.7-1.66,1.15-2.73,1.43h-36.47ZM543.32,394c-1.71-.25-3.02-.74-3.92-1.64-.67-.67-1.15-1.57-1.45-2.81v-36.22c.82-4.84,3.23-5.65,9.99-5.94.55-.01,1.12-.03,1.72-.06h0s23.11,0,23.11,0h0c2.48.27,4.64.35,6.44.03,1.84.16,3.17.55,4,1.36.74.72,1.15,1.83,1.38,3.38v36.18c-.37,1.93-1.05,3.34-2.06,4.3-.74.7-1.66,1.15-2.73,1.43h-36.47ZM591.05,394c-1.71-.25-3.02-.74-3.92-1.64-.71-.71-1.2-1.66-1.51-3.02v-35.62c.75-5.19,3.11-6.04,10.05-6.34.55-.01,1.12-.03,1.72-.06h0s23.11,0,23.11,0h0c2.48.27,4.64.35,6.44.03,1.84.16,3.17.55,4,1.36.69.67,1.09,1.66,1.33,3.03v36.81c-.38,1.78-1.04,3.1-2.01,4.02-.74.7-1.66,1.15-2.73,1.43h-36.47ZM733.7,394.58c-1.69-.25-2.97-.74-3.86-1.64-.55-.56-.97-1.29-1.26-2.25v-6.53c3.76-18.23,17.78-32.26,35.08-36.31,2.02.18,3.82.22,5.35-.07,1.82.16,3.12.55,3.94,1.36.97.96,1.36,2.58,1.53,5.02v33.56c-.3,2.5-1.02,4.27-2.19,5.41-.73.71-1.64,1.16-2.69,1.44h-35.88ZM780.66,394.58c-1.69-.25-2.97-.74-3.86-1.64-.59-.6-1.02-1.37-1.32-2.4v-37.3c.86-4.15,3.14-5.04,8.89-5.36,14.15,3.31,26.08,13.26,32.02,27.23.11.41.25.8.4,1.17,2.25,5.39,3.33,10.94,3.84,14.69-.36.89-.83,1.62-1.42,2.18-.73.71-1.64,1.16-2.69,1.44h-35.87ZM160.18,441.69c-.73-.19-1.38-.46-1.91-.81l44.08-43.29c.65,1.88.68,4.8.68,9.05h.17v23.35h-.17c-.07,1.63-.09,3.11-.03,4.42-.25,2.89-1,4.87-2.31,6.11-.55.52-1.2.89-1.93,1.17h-38.58ZM207.91,441.69c-1.08-.29-1.96-.72-2.62-1.38-.43-.43-.78-.95-1.06-1.6v-39.77c.78-2.4,2.29-3.44,5.18-3.93h38.04c.68.22,1.23.52,1.65.93,1.61,1.56,1.67,4.91,1.66,10.69h.11v23.35h-.11c-.07,1.63-.09,3.11-.03,4.42-.25,2.89-1,4.87-2.31,6.11-.55.52-1.2.89-1.93,1.17h-38.58ZM255.64,441.69c-1.08-.29-1.96-.72-2.62-1.38-.46-.46-.83-1.04-1.12-1.75v-39.45c.76-2.52,2.28-3.6,5.23-4.09h38.04c.68.22,1.23.52,1.65.93,1.61,1.56,1.68,4.9,1.66,10.69h0s.06,0,.06,0v23.35h-.06c-.07,1.63-.09,3.11-.03,4.42-.25,2.89-1,4.87-2.31,6.11-.55.52-1.2.89-1.92,1.17h-38.58ZM303.37,441.69c-1.08-.29-1.96-.72-2.62-1.38-.5-.49-.88-1.12-1.17-1.9v-39.13c.74-2.65,2.26-3.75,5.29-4.26h38.04c.68.22,1.23.52,1.65.93,1.61,1.56,1.67,4.91,1.66,10.69h0v23.35h0c-.07,1.63-.09,3.11-.03,4.42-.25,2.89-1,4.87-2.31,6.11-.55.52-1.2.89-1.93,1.17h-38.58ZM351.1,441.69c-1.08-.29-1.96-.72-2.62-1.38-.53-.53-.93-1.19-1.23-2.05v-38.76c.72-2.8,2.24-3.96,5.35-4.48h38.04c.68.22,1.23.52,1.65.93,1.12,1.09,1.49,3.03,1.61,6.06v29.74c-.01.66-.01,1.29,0,1.89v1c-.27,2.77-1.01,4.68-2.29,5.89-.55.52-1.2.89-1.93,1.17h-38.58ZM398.83,441.69c-1.08-.29-1.96-.72-2.62-1.38-.56-.56-.98-1.27-1.28-2.2v-38.36c.46-1.96,1.26-3.17,2.67-3.91,11.33.79,21.9,5.6,29.98,13.7,7.62,7.63,12.31,17.47,13.46,28.06-.4,1.24-.96,2.21-1.71,2.92-.55.52-1.2.89-1.92,1.17h-38.58ZM494.29,441.69c-1.08-.29-1.96-.72-2.62-1.38-.09-.09-.17-.19-.25-.28v-42.76c.89-1.25,2.26-1.9,4.36-2.25h38.04c.68.22,1.23.52,1.65.93.81.78,1.22,2.02,1.44,3.78v36.16c-.36,2.1-1.05,3.62-2.12,4.63-.55.52-1.2.89-1.93,1.17h-38.58ZM542.02,441.69c-1.08-.29-1.96-.72-2.62-1.38-.67-.67-1.15-1.57-1.45-2.81v-36.94c.6-3.59,2.09-4.96,5.57-5.54h38.04c.68.22,1.23.52,1.65.93.74.72,1.15,1.83,1.38,3.38v36.89c-.37,1.93-1.05,3.34-2.06,4.3-.55.52-1.2.89-1.93,1.17h-38.58ZM589.75,441.69c-1.08-.29-1.96-.72-2.62-1.38-.71-.71-1.2-1.66-1.51-3.02v-36.33c.56-3.87,2.03-5.34,5.62-5.94h38.04c.68.22,1.23.52,1.65.93.69.67,1.09,1.66,1.33,3.03v37.53c-.38,1.78-1.04,3.1-2.01,4.02-.55.52-1.2.89-1.93,1.17h-38.58ZM729.83,441.03c-.55-.56-.97-1.29-1.26-2.25v-38.39c.68-3.01,2.16-4.25,5.31-4.8h37.43c.67.22,1.21.52,1.62.93.97.96,1.36,2.58,1.53,5.02v34.28c-.3,2.5-1.02,4.27-2.19,5.41-.4.39-.86.69-1.35.94l-39.15.03c-.77-.28-1.42-.66-1.93-1.18ZM779.37,442.41c-1.07-.29-1.93-.72-2.57-1.38-.59-.6-1.02-1.37-1.32-2.4v-38.02c.65-3.18,2.14-4.45,5.37-5.01h37.43c.67.22,1.21.52,1.62.93.86.86,1.28,2.24,1.47,4.27v35.47c-.33,2.27-1.03,3.9-2.14,4.97-.54.52-1.18.9-1.89,1.18h-37.96ZM826.33,442.41c-1.07-.29-1.93-.72-2.57-1.38-.62-.63-1.07-1.47-1.37-2.61v-37.56c.58-3.13,1.9-4.49,4.73-5.12h38.44c.51.21.96.46,1.3.79.79.78,1.2,2.01,1.42,3.76v36.31c-.35,2.1-1.03,3.63-2.08,4.64-.54.52-1.18.9-1.89,1.18h-37.96ZM873.29,442.41c-1.07-.29-1.93-.72-2.57-1.38-.66-.67-1.13-1.57-1.43-2.82v-37.06c.51-3.09,1.68-4.54,4.16-5.25,10.05,1.36,19.35,6.01,26.61,13.43,8.27,8.45,13.02,19.59,13.47,31.48-.13.15-.25.3-.39.43-.54.52-1.18.9-1.89,1.18h-37.96ZM906.11,443.43c.82.04,1.61.05,2.34,0h2.71c1.16.22,2.04.59,2.65,1.19.73.72,1.13,1.83,1.36,3.37v36.85c-.37,1.92-1.04,3.32-2.03,4.28-.01,0-.02.02-.03.03l-41.92.16c-.16-.13-.33-.25-.47-.4-.66-.67-1.13-1.57-1.43-2.82v-36.85c.71-4.28,2.66-5.41,7.67-5.82h29.16ZM865.93,489.33l-14.69.06c8.53-2.17,15.19-9.16,17.03-17.96v13.05c-.35,2.1-1.03,3.63-2.08,4.64-.08.08-.17.14-.26.21ZM859.15,443.43c.82.04,1.61.05,2.34,0h2.71c1.16.22,2.04.59,2.65,1.19.79.79,1.2,2.02,1.42,3.79v13.12c-1.88-9-8.8-16.1-17.6-18.1h8.49ZM840.56,443.43c-10.36,2.35-18.12,11.77-18.12,23.05s7.56,20.46,17.72,22.96l-15.71.06c-.26-.17-.49-.36-.71-.58-.62-.63-1.07-1.47-1.37-2.61v-37.36c.75-4.03,2.73-5.12,7.61-5.52h10.57ZM812.19,443.43c.82.04,1.61.05,2.34,0h2.71c1.16.22,2.04.59,2.65,1.19.87.86,1.28,2.27,1.47,4.32v35.22c-.33,2.27-1.03,3.9-2.14,4.97-.15.15-.32.27-.48.39l-40.92.16c-.38-.22-.73-.46-1.02-.76-.59-.6-1.02-1.37-1.32-2.4v-30.35l.04-7.64c.81-3.68,2.81-4.72,7.52-5.1h29.16ZM527.66,442.71c.82.04,1.61.05,2.34,0h2.77c1.18.22,2.07.58,2.7,1.19.81.78,1.22,2.02,1.44,3.79v35.96c-.19,1.15-.49,2.13-.89,2.94l-42.6-42.94c1.14-.5,2.63-.77,4.58-.93h29.66ZM479.93,442.71c.83.04,1.62.05,2.35,0h2.76c1.18.22,2.07.58,2.7,1.19.21.2.39.44.55.7-7.21,7.34-28.56,27.96-44.52,43.27-.51-.56-.89-1.27-1.17-2.2v-37.71c.8-3.8,2.82-4.86,7.68-5.25h29.65ZM241.28,442.71c.83.04,1.62.05,2.35,0h2.76c1.18.22,2.07.58,2.7,1.19,1.61,1.56,1.67,4.91,1.66,10.69h.11v23.15h-.11c-.07,1.63-.09,3.11-.03,4.42-.16,1.82-.51,3.28-1.08,4.42l-43.42-42.49c1.21-.81,2.95-1.18,5.41-1.38h29.65ZM163.9,442.71h29.65c.83.04,1.62.05,2.35,0h2.76c1.01.18,1.78.5,2.38.96l-43.95,43.85c-.21-.28-.39-.59-.55-.94v-39.85c.98-2.81,3.06-3.68,7.34-4.02ZM64.5,489.39c-.72-.21-1.33-.5-1.85-.88l43.81-43.9c1.07,1.77,1.11,4.96,1.11,9.99h.28v23.15h-.28c-.07,1.63-.09,3.11-.03,4.42-.25,2.89-1,4.87-2.31,6.11-.51.49-1.11.84-1.78,1.12h-38.94ZM112.23,489.39c-.88-.26-1.6-.63-2.18-1.15l44.24-43.45c.97,1.81,1.01,4.94,1,9.8h.23v23.15h-.23c-.07,1.63-.09,3.11-.03,4.42-.25,2.89-1,4.87-2.31,6.11-.51.49-1.11.84-1.78,1.12h-38.94ZM255.42,489.39c-.98-.29-1.78-.71-2.4-1.32-.46-.46-.83-1.04-1.12-1.75v-39.25c.93-3.08,3-4,7.45-4.35h29.65c.83.04,1.62.05,2.35,0h2.76c1.18.22,2.07.58,2.69,1.19,1.61,1.56,1.68,4.9,1.66,10.69h0s.06,0,.06,0v23.15h-.06c-.07,1.63-.09,3.11-.03,4.42-.25,2.89-1,4.87-2.31,6.11-.51.49-1.11.84-1.78,1.12h-38.94ZM303.15,489.39c-.98-.29-1.78-.71-2.4-1.32-.5-.49-.88-1.12-1.17-1.9v-38.93c.9-3.22,2.97-4.16,7.51-4.52h29.66c.82.04,1.61.05,2.34,0h2.77c1.18.22,2.07.58,2.69,1.19,1.61,1.56,1.67,4.91,1.66,10.69h0v23.15h0c-.07,1.63-.09,3.11-.03,4.42-.25,2.89-1,4.87-2.31,6.11-.51.49-1.11.84-1.78,1.12h-38.94ZM350.88,489.39c-.98-.29-1.78-.71-2.4-1.32-.53-.53-.93-1.19-1.23-2.05v-38.56c.87-3.4,2.93-4.37,7.56-4.74h29.65c.83.04,1.62.05,2.35,0h2.76c1.18.22,2.07.58,2.7,1.19,1.12,1.09,1.49,3.04,1.61,6.06v29.53c-.01.66-.01,1.29,0,1.89v1c-.27,2.76-1.01,4.68-2.29,5.89-.51.49-1.11.84-1.78,1.12h-38.94ZM398.61,489.39c-.98-.29-1.78-.71-2.4-1.32-.56-.56-.98-1.27-1.28-2.2v-38.15c.84-3.6,2.88-4.62,7.62-5h29.65c.83.04,1.62.05,2.35,0h2.76c1.18.22,2.07.58,2.7,1.19.98.95,1.39,2.58,1.55,5.01v33.97c-.31,2.5-1.04,4.26-2.23,5.39-.51.49-1.11.84-1.78,1.12h-38.94ZM541.8,489.39c-.98-.29-1.78-.71-2.4-1.32-.67-.67-1.15-1.57-1.45-2.81v-36.74c.72-4.27,2.7-5.4,7.79-5.8h29.65c.83.04,1.62.05,2.35,0h2.76c1.18.22,2.08.58,2.7,1.19.74.72,1.15,1.83,1.38,3.38v36.69c-.37,1.93-1.05,3.34-2.06,4.3-.51.49-1.11.84-1.78,1.12h-38.94ZM589.53,489.39c-.98-.29-1.78-.71-2.4-1.32-.71-.71-1.2-1.66-1.51-3.02v-36.13c.67-4.59,2.61-5.79,7.84-6.2h29.65c.83.04,1.62.05,2.35,0h2.76c1.18.22,2.07.58,2.7,1.19.69.67,1.09,1.66,1.33,3.03v37.33c-.38,1.78-1.04,3.1-2.01,4.02-.51.49-1.11.84-1.78,1.12h-38.94ZM732.2,490.25c-.97-.29-1.76-.71-2.36-1.33-.55-.56-.97-1.29-1.26-2.25v-38.2c.21-.95.51-1.74.91-2.36l22.43,44.14h-19.72ZM939.65,490.25l21.93-44.39c.22.51.38,1.11.5,1.8v37.44c-.38,1.79-1.03,3.11-1.97,4.03-.5.49-1.1.85-1.76,1.12h-18.7ZM1005.81,586.94c.84.23,1.52.55,2.01,1.03.61.6.99,1.47,1.23,2.63v38.27c-.38,1.62-1.01,2.85-1.9,3.7-.54.52-1.18.9-1.89,1.18h-37.92c-1.12-.29-2.03-.73-2.7-1.41-.75-.76-1.25-1.81-1.54-3.33v-35.4c.63-5.14,2.61-6.29,8.42-6.67h34.29ZM961.84,590.15c.09.32.17.67.24,1.05v37.31c-.38,1.79-1.03,3.11-1.97,4.03-.56.54-1.22.92-1.97,1.21h-17.93l21.64-43.6ZM750.42,633.75h-17.89c-1.12-.29-2.03-.73-2.7-1.41-.55-.56-.97-1.29-1.26-2.25v-38.04c.07-.3.14-.6.22-.87l21.63,42.58ZM1009.05,542.29v38.58c-.38,1.62-1.01,2.85-1.9,3.7-.64.62-1.41,1.05-2.3,1.34h-37.85c-.72-.21-1.33-.51-1.84-.9l42.83-45.18c.51.59.85,1.39,1.07,2.45ZM953.07,539.1c.82.04,1.61.05,2.34,0h2.71c1.16.22,2.04.59,2.65,1.19.67.67,1.07,1.66,1.31,3.03v37.45c-.38,1.79-1.03,3.11-1.97,4.03-.5.49-1.1.85-1.76,1.12h-38.32c-.97-.29-1.75-.71-2.36-1.33-.7-.71-1.18-1.66-1.48-3.03v-36.23c.65-4.6,2.57-5.8,7.72-6.22h29.15ZM822.52,582.47c-.05-.16-.1-.32-.14-.49v-26.48l.14,26.97ZM868.27,579.01v1.14c-.01.08-.02.15-.04.23l.04-1.37ZM869.29,581.77v-36.85c.63-3.8,2.24-5.12,6.11-5.65l37.19.26c.48.2.9.44,1.23.76.73.73,1.14,1.84,1.36,3.39v36.79c-.36,1.93-1.03,3.35-2.03,4.32-.5.49-1.1.85-1.75,1.12h-38.32c-.97-.29-1.75-.71-2.36-1.33-.66-.67-1.13-1.57-1.43-2.82ZM812.19,539.1c.82.04,1.61.05,2.34,0h2.71c1.16.22,2.04.59,2.65,1.19.86.86,1.28,2.25,1.47,4.27v35.26c-.33,2.27-1.03,3.9-2.14,4.97-.5.49-1.1.85-1.76,1.12h-38.31c-.97-.29-1.75-.71-2.36-1.33-.59-.6-1.02-1.37-1.32-2.4v-37.82c.79-3.82,2.78-4.88,7.56-5.27h29.15ZM765.23,539.1c.82.04,1.61.05,2.34,0h2.71c1.16.22,2.04.59,2.65,1.19.97.96,1.36,2.58,1.53,5.02v34.07c-.3,2.5-1.02,4.27-2.19,5.41-.5.49-1.1.85-1.76,1.12h-38.32c-.97-.29-1.75-.71-2.36-1.33-.55-.56-.97-1.29-1.26-2.25v-38.21c.82-3.62,2.83-4.65,7.5-5.03h29.16ZM623.1,538.1c.84.04,1.64.05,2.38,0h2.75c1.18.22,2.08.58,2.7,1.19.68.67,1.09,1.66,1.33,3.01v37.34c-.24,1.14-.6,2.09-1.08,2.86l-42.85-43.2c1.2-.69,2.86-1.02,5.15-1.21h29.63ZM346.18,577.55c-.25,2.89-1,4.87-2.31,6.11-.29.28-.63.51-.97.71-22.83-2.13-41-20.81-42.37-43.8.54-.74,1.26-1.27,2.2-1.65h41.32c.17.11.35.23.49.36,1.61,1.56,1.67,4.9,1.66,10.69h0v23.15h0c-.07,1.63-.09,3.11-.03,4.42ZM348.48,583.45c-.53-.53-.93-1.19-1.23-2.05v-38.56c.53-2.07,1.5-3.24,3.22-3.92h41.32c.17.11.35.23.49.36.81.79,1.23,2.04,1.45,3.83-2.56,22.31-20.96,40-43.62,41.38-.63-.27-1.18-.6-1.62-1.05ZM574.36,490.4c1.41.11,2.7.12,3.86,0h1.88c1.37.2,2.41.58,3.09,1.24.74.72,1.15,1.83,1.38,3.37v36.59c-.22,1.15-.56,2.12-1.01,2.91l-42.68-43.02c1.29-.64,3.07-.93,5.51-1.09h27.95ZM488,534.73c-.27.45-.59.85-.94,1.18-.37.35-.8.64-1.26.87h-40.15c-.67-.27-1.25-.62-1.72-1.08-.6-.59-1.03-1.36-1.34-2.39v-37.6c.27-1.31.69-2.3,1.31-3.04l44.09,42.06ZM431.17,490.4c1.41.11,2.7.12,3.86,0h1.88c1.37.2,2.41.58,3.09,1.24.98.95,1.38,2.57,1.55,4.99v33.88c-.31,2.5-1.04,4.26-2.23,5.39-.37.35-.8.64-1.26.87h-40.15c-.67-.27-1.25-.62-1.72-1.08-.56-.56-.98-1.27-1.28-2.2v-38.05c.87-3.77,3.06-4.71,8.3-5.05h27.95ZM383.44,490.4c1.41.11,2.7.12,3.86,0h1.88c1.37.2,2.41.58,3.09,1.24,1.11,1.07,1.48,2.99,1.61,5.96v29.56c-.01.64-.01,1.26,0,1.84v1.01c-.12,1.23-.33,2.28-.64,3.18-2.22-22.03-19.56-39.65-41.46-42.33,1.02-.23,2.24-.38,3.71-.47h27.95ZM335.71,490.4c1.41.11,2.7.12,3.86,0h1.89c.41.06.8.14,1.15.24-21.21,1.5-38.61,16.97-43.03,37.25v-32.91c.95-3.38,3.16-4.25,8.19-4.57h27.95ZM287.98,490.4c1.41.11,2.7.12,3.86,0h1.88c1.37.2,2.41.58,3.09,1.24,1.61,1.56,1.67,4.91,1.66,10.69h0s.06,0,.06,0v23.04h-.06c-.07,1.63-.09,3.1-.03,4.42-.25,2.89-1,4.87-2.31,6.11-.37.35-.8.64-1.26.87h-40.15c-.67-.27-1.25-.62-1.72-1.08-.46-.46-.83-1.04-1.12-1.75v-39.14c.97-3.24,3.2-4.09,8.13-4.41h27.95ZM247.16,536.78h-40.15c-.47-.19-.88-.42-1.25-.7l44.02-43.5c.94,1.81.99,4.93.98,9.75h.11v23.04h-.11c-.07,1.63-.09,3.1-.03,4.42-.25,2.89-1,4.87-2.31,6.11-.37.35-.8.64-1.26.87ZM144.79,490.4c1.41.11,2.7.12,3.86,0h1.89c1.15.17,2.04.47,2.71.96l-43.88,43.79c-.18-.25-.34-.52-.48-.82v-40.02c1.05-2.83,3.29-3.61,7.96-3.91h27.95ZM64.72,537.08c-1.08-.29-1.96-.72-2.62-1.38-.35-.35-.64-.77-.89-1.26v-40.3c1.08-2.7,3.33-3.44,7.91-3.74h27.95c1.41.11,2.7.12,3.86,0h1.88c1.37.2,2.41.58,3.09,1.24,1.61,1.56,1.67,4.91,1.66,10.69h.28v23.04h-.28c-.07,1.63-.09,3.11-.03,4.42-.25,2.89-1,4.87-2.31,6.11-.55.52-1.2.89-1.92,1.17h-38.58ZM589.75,537.08c-1.08-.29-1.96-.72-2.62-1.38-.71-.71-1.2-1.66-1.51-3.02v-36.02c.69-4.78,2.76-5.88,8.52-6.26h27.95c1.41.11,2.7.12,3.86,0h1.88c1.37.2,2.41.58,3.09,1.24.69.67,1.09,1.66,1.33,3.02v37.22c-.38,1.78-1.04,3.1-2.01,4.02-.55.52-1.2.89-1.92,1.17h-38.58ZM732.41,538.08c-1.07-.29-1.93-.72-2.57-1.38-.55-.56-.97-1.29-1.26-2.25v-38.1c.86-3.79,3-4.75,8.16-5.09h15.7l21.59,42.49c-.39,1.35-.97,2.39-1.76,3.15-.54.52-1.18.9-1.89,1.18h-37.96ZM920.25,538.08c-1.07-.29-1.93-.72-2.57-1.38-.22-.22-.41-.48-.59-.76l22.06-44.67h12.93c1.39.11,2.65.12,3.79,0h1.86c1.35.21,2.37.58,3.04,1.24.67.67,1.07,1.66,1.31,3.03v37.34c-.38,1.79-1.03,3.11-1.97,4.03-.54.52-1.18.9-1.89,1.18h-37.96ZM68.44,538.1h29.63c.84.04,1.64.05,2.38,0h2.75c.96.18,1.71.47,2.3.9l-43.92,43.83c-.14-.19-.26-.4-.38-.63v-40.41c1.02-2.56,3.12-3.36,7.24-3.69ZM16.77,584.77c-.99-.29-1.78-.71-2.4-1.32-.36-.36-.65-.78-.9-1.28v-40.35c.31-.79.74-1.41,1.28-1.91l43.32,43.11c-.18.23-.36.45-.57.64-.51.49-1.11.85-1.78,1.12H16.77ZM637.26,584.77c-.96-.28-1.74-.69-2.35-1.28l45.09-45.32v44.26c-.36.85-.81,1.55-1.38,2.1-.09.09-.2.16-.3.24h-41.06ZM683.15,584.32c-.76-.77-1.26-1.85-1.56-3.42v-41.81h.04l44.16,45.14c-.15.2-.32.38-.49.55-.5.49-1.1.85-1.75,1.12h-36.87c-1.52-.26-2.7-.75-3.53-1.59ZM17.11,632.47c-1.14-.29-2.06-.73-2.74-1.41-.36-.36-.65-.78-.9-1.28v-40.21c1.07-2.72,3.32-3.47,7.91-3.77h27.96c1.41.11,2.69.11,3.86,0h1.89c1.37.2,2.41.58,3.09,1.24,1.61,1.56,1.68,4.9,1.66,10.69h.34v23.01h-.34c-.07,1.63-.09,3.11-.03,4.42-.25,2.89-1,4.87-2.31,6.11-.57.54-1.24.92-2,1.2H17.11ZM64.84,632.47c-1.14-.29-2.06-.73-2.74-1.41-.35-.35-.64-.77-.89-1.26v-40.27c.13-.34.29-.64.46-.92l22.15,43.85h-18.97ZM609.68,632.47l22.17-43.96c.17.45.3.96.4,1.54v37.2c-.38,1.78-1.04,3.1-2.01,4.02-.57.54-1.24.92-2,1.2h-18.56ZM637.6,632.47c-1.14-.29-2.06-.73-2.74-1.41-.76-.76-1.27-1.8-1.56-3.32v-35.28c.64-5.13,2.65-6.28,8.57-6.66h34.64c-.37.13-.75.24-1.16.32-1.61-.13-3.67-.1-6.32-.02l-.02.43c2.44.27,4.57.35,6.34.03,1.81.16,3.12.55,3.93,1.36.28.28.52.62.71,1.02v41.08c-.36.85-.81,1.55-1.38,2.1-.13.13-.28.24-.43.35h-40.59ZM683.15,631.91c-.76-.77-1.26-1.85-1.56-3.42v-35.03c.51-4.39,1.99-5.92,5.9-6.53h29.77c1.39.11,2.65.12,3.79,0h1.86c1.35.21,2.37.58,3.04,1.24,1.1,1.08,1.46,3.02,1.58,6.04v29.44c-.01.7-.02,1.37,0,2.01v.98c-.26,2.77-1,4.7-2.25,5.91-.56.54-1.22.92-1.97,1.21h-30.1v-.07c-.59.02-1.14.04-1.67.06-.3,0-.58,0-.87,0h-.87c-3.15-.04-5.34-.49-6.67-1.84ZM24.61,680.21v-.05c-.5.02-.98.03-1.44.05h-2.76c-2.8-.1-4.79-.58-6.04-1.82-.36-.36-.65-.78-.9-1.28v-39.94c.99-2.5,2.98-3.34,6.88-3.69h30.7c.15,0,.3,0,.45,0h4.1c1.11.22,1.98.58,2.57,1.16,1.61,1.56,1.68,4.9,1.66,10.69h.34v22.73h-.34c-.07,1.63-.09,3.1-.03,4.42-.25,2.89-1,4.87-2.31,6.11-.88.83-1.99,1.33-3.33,1.58-1.64-.14-3.73-.1-6.42-.02v.05h-23.14ZM72.34,680.21v-.05c-.5.02-.97.03-1.44.05h-2.76c-2.81-.1-4.79-.58-6.04-1.82-.35-.35-.64-.77-.89-1.26v-39.99c.99-2.48,2.99-3.31,6.87-3.66h16.25l22.02,43.6c-.32.59-.69,1.1-1.13,1.51-.88.83-1.99,1.33-3.33,1.58-1.64-.14-3.73-.1-6.42-.02v.05h-23.14ZM597.37,680.21v-.05c-.5.02-.98.03-1.44.05h-2.76c-2.8-.1-4.79-.58-6.04-1.82-.14-.14-.26-.28-.39-.44l22.43-44.47h14.63c.15,0,.3,0,.45,0h4.1c1.11.22,1.98.58,2.57,1.16.68.66,1.09,1.65,1.33,3.01v36.92c-.38,1.78-1.04,3.1-2.01,4.02-.88.83-1.99,1.33-3.33,1.58-1.64-.14-3.73-.1-6.42-.02v.05h-23.14ZM645.1,680.21v-.05c-.5.02-.97.03-1.44.05h-2.76c-2.81-.1-4.79-.58-6.04-1.82-.76-.76-1.27-1.8-1.56-3.32v-35.01c.6-4.81,2.43-6.12,7.54-6.58h35.37c-.28.08-.56.16-.86.22-1.61-.14-3.67-.1-6.32-.02l-.02.43c2.44.27,4.57.35,6.34.03,1.81.16,3.12.55,3.94,1.36.28.28.52.62.71,1.02v41.4c-.36.85-.81,1.55-1.38,2.1-.07.07-.16.12-.23.19h-33.29ZM693.23,681.63v-.05c-.49.02-.94.03-1.39.05h-2.77c-2.74-.1-4.69-.58-5.91-1.82-.76-.77-1.26-1.85-1.56-3.42v-35.35c.45-3.88,1.65-5.53,4.63-6.28h32.74c.14,0,.27,0,.41,0h4.06c1.1.22,1.94.58,2.53,1.16,1.1,1.08,1.46,3.02,1.58,6.04v29.16c-.01.7-.02,1.37,0,2.01v.98c-.26,2.77-1,4.7-2.25,5.91-.86.84-1.96,1.33-3.27,1.58-1.61-.14-3.67-.1-6.32-.02v.05h-22.48ZM739.91,681.63v-.05c-.49.02-.94.03-1.39.05h-2.77c-2.74-.1-4.69-.58-5.91-1.82-.55-.56-.97-1.29-1.26-2.25v-37.79c.8-3.52,2.72-4.6,7.13-5h15.24l22.32,43.93c-.29.5-.62.95-1,1.32-.86.84-1.96,1.33-3.27,1.58-1.61-.14-3.67-.1-6.32-.02v.05h-22.76ZM927.75,681.63v-.05c-.49.02-.94.03-1.39.05h-2.77c-2.74-.1-4.69-.58-5.91-1.82-.08-.08-.14-.17-.22-.25l22.23-44.79h14.08c.14,0,.27,0,.41,0h4.06c1.1.22,1.94.58,2.53,1.16.67.67,1.07,1.66,1.31,3.03v37.03c-.38,1.79-1.03,3.11-1.97,4.03-.86.84-1.96,1.33-3.27,1.58-1.61-.14-3.67-.1-6.32-.02v.05h-22.76ZM974.71,681.63v-.05c-.49.02-.94.03-1.39.05h-2.77c-2.74-.1-4.69-.58-5.91-1.82-.75-.76-1.25-1.81-1.54-3.33v-35.12c.59-4.82,2.39-6.13,7.41-6.59h29.61c.82.04,1.61.05,2.34,0h2.71c1.16.22,2.04.59,2.66,1.19.6.6.98,1.45,1.23,2.6v37.97c-.38,1.62-1.01,2.85-1.9,3.7-.7.67-1.55,1.12-2.54,1.4h-29.9Z"/>
  </g>
</svg>